<?xml version="1.0" encoding="UTF-8"?><svg id="Capa_1" xmlns="http://www.w3.org/2000/svg" viewBox="0 0 2872.5 1508.67"><defs><style>.cls-1{fill:#deeeea;}</style></defs><path class="cls-1" d="M2046.73,1508.5c-59.61-.36-107.45-15.05-151.13-43.52-19.02-12.4-36.49-26.84-51.33-43.95-31.42-36.26-52.99-77.64-62.16-125.09-2.14-11.07-4.03-22.12-4-33.47,.02-6.26-2.32-12.3-1.97-18.75,1.82-33.3,7.65-65.69,19.71-96.96,7.24-18.78,18.22-35.44,27.91-52.82,11.32-20.3,23.17-40.3,34.79-60.43,11.12-19.28,22.2-38.57,33.34-57.84,11.3-19.55,22.65-39.07,33.96-58.62,13.48-23.28,26.95-46.56,40.4-69.85,11.3-19.55,22.58-39.12,33.84-58.69,11.26-19.58,22.47-39.18,33.73-58.76,11.59-20.15,23.19-40.3,34.83-60.41,13.15-22.7,26.37-45.36,39.53-68.06,11.32-19.54,22.6-39.1,33.87-58.68,11.26-19.58,22.45-39.19,33.71-58.77,11.59-20.15,23.2-40.28,34.84-60.41,11.3-19.55,22.66-39.07,33.96-58.62,11.14-19.27,22.21-38.57,33.34-57.83,13.45-23.29,26.95-46.56,40.41-69.85,11.3-19.55,22.57-39.12,33.82-58.7,16.03-27.91,30.41-57.01,51.31-81.67,15.01-17.71,32.13-33.49,51.37-47.01,28.97-20.36,60.51-34.45,94.92-42.26,13.24-3,26.59-5.49,40.28-5.28,7.31,.12,14.33-3.1,21.74-1.95,16.67,2.58,33.64,2.53,50.2,6.2,23.77,5.27,46.77,12.77,68.4,23.93,29.53,15.24,55.38,35.52,77.26,60.48,14.68,16.75,27.41,35.14,37.28,55.13,11.34,22.96,19.36,47.06,23.7,72.55,3.43,20.16,4.76,40.35,3.35,60.5-1.88,26.82-7.93,52.94-17.21,78.35-8.17,22.37-21.37,41.93-32.99,62.38-10.66,18.77-21.56,37.4-32.32,56.11-10.6,18.43-21.1,36.91-31.75,55.3-11.32,19.54-22.76,39-34.16,58.49-18.27,31.24-36.66,62.42-54.81,93.73-16.15,27.87-31.95,55.95-48.08,83.84-15.79,27.31-31.9,54.43-47.67,81.75-14.12,24.45-27.86,49.12-41.97,73.57-15.76,27.32-31.83,54.47-47.62,81.77-11.47,19.84-22.64,39.86-34.08,59.72-19.56,33.95-39.31,67.8-58.83,101.78-16.71,29.09-33.12,58.35-49.84,87.43-16.55,28.79-33.59,57.29-49.87,86.23-9.12,16.22-18.29,32.4-28.33,48.06-10.41,16.24-22.73,31.03-36.44,44.59-12.05,11.92-24.92,22.89-39.07,32.33-30.25,20.19-63.33,33.32-99.1,39.65-16.01,2.83-32.13,4.79-41.08,4.36Z"/><path class="cls-1" d="M1094.49,259.38c-.21,53.64-12.88,98.59-37.87,140.39-19.26,32.2-37.31,65.12-56.07,97.62-15.77,27.31-31.9,54.42-47.67,81.73-14.12,24.45-27.85,49.12-41.96,73.57-15.76,27.32-31.83,54.46-47.63,81.76-11.31,19.55-22.33,39.26-33.59,58.84-11.26,19.57-22.69,39.04-33.98,58.59-11.13,19.26-22.21,38.56-33.28,57.86-11.24,19.59-22.42,39.21-33.67,58.78-11.59,20.15-23.21,40.27-34.86,60.39-13.14,22.7-26.34,45.38-39.49,68.07-11.32,19.54-22.62,39.09-33.92,58.63-11.63,20.12-23.29,40.23-34.87,60.38-11.26,19.58-22.44,39.2-33.66,58.79-10.89,19.02-21.7,38.09-32.72,57.04-10.34,17.79-20.89,35.46-31.38,53.17-6.61,11.16-14.32,21.62-22.9,31.24-26.66,29.87-57.88,53.85-94.76,69.92-20.13,8.77-41.13,14.53-62.82,18.44-21.13,3.82-42.41,5.1-63.48,3.23-27.02-2.4-53.65-7.85-79.09-18.25-37.22-15.22-69.84-37.11-96.78-66.8-29.27-32.26-49.28-69.76-59.84-112.22-6.29-25.3-9.41-50.97-7.77-76.89,2.04-32.28,9.18-63.56,22.67-93.18,12.83-28.16,29.78-54.04,44.91-80.92,9.12-16.2,18.49-32.27,27.78-48.38,13.44-23.3,26.91-46.57,40.37-69.86,11.3-19.55,22.61-39.09,33.87-58.66,11.26-19.57,22.44-39.2,33.69-58.77,11.59-20.15,23.23-40.26,34.85-60.39,11.12-19.27,22.2-38.57,33.33-57.83,11.3-19.55,22.63-39.08,33.96-58.61,10.83-18.67,21.7-37.31,32.5-56,11.3-19.55,22.55-39.13,33.81-58.7,11.26-19.57,22.47-39.17,33.76-58.73,13.61-23.58,27.28-47.13,40.93-70.69,9.98-17.24,19.94-34.5,29.95-51.73,11.52-19.8,23.08-39.58,34.63-59.36,20.75-35.56,41.75-70.98,62.19-106.71,13.52-23.64,26.41-47.64,41.48-70.36,21.1-31.83,48.86-56.68,81.25-76.56,27.8-17.06,58.17-27.49,90.03-33.41,8.66-1.61,17.61-3.78,26.66-2.54,5.8,.79,11.01-2.35,16.75-2.05,31.55,1.67,62.64,5.69,92.43,17.03,24.37,9.28,46.79,21.85,67.78,37.38,20.79,15.39,38.32,33.77,53.53,54.47,23.15,31.51,38.55,66.64,46.09,104.91,3.25,16.51,6.24,33.31,4.87,45.38Z"/><path class="cls-1" d="M890.31,1246.93c-1.46-40.83,8.15-77.19,23.85-112.01,6.12-13.58,14.29-26.24,21.72-39.21,11.23-19.59,22.63-39.08,33.94-58.62,13.47-23.28,26.93-46.56,40.38-69.85,11.29-19.55,22.59-39.1,33.85-58.67,11.26-19.57,22.45-39.19,33.71-58.76,11.59-20.15,23.2-40.28,34.83-60.4,11.3-19.55,22.66-39.06,33.96-58.61,11.13-19.26,22.21-38.56,33.34-57.83,13.45-23.29,26.95-46.55,40.4-69.84,11.29-19.55,22.57-39.12,33.83-58.69,11.26-19.57,22.46-39.18,33.74-58.74,11.28-19.56,22.66-39.06,33.96-58.61,11.63-20.12,23.23-40.26,34.83-60.4,11.11-19.28,22.18-38.58,33.31-57.84,13.45-23.29,26.97-46.54,40.42-69.83,11.29-19.55,22.42-39.2,33.83-58.69,14.91-25.48,28.59-51.69,46.18-75.59,18.39-24.97,41.1-44.98,66.78-61.97,29.82-19.73,62.77-31.59,97.66-38.04,8.66-1.6,17.6-3.52,26.68-2.54,6.68,.72,12.94-2.56,19.74-2.04,29.81,2.27,59.32,5.9,87.54,16.5,25.03,9.4,48.07,22.23,69.56,38.24,20.75,15.46,38.19,33.89,53.43,54.56,23.66,32.09,38.48,68.16,45.92,107.09,3.67,19.17,5.88,38.81,4.37,58.4-3.33,43.18-13.81,84.24-36.77,121.64-11.81,19.24-22.4,39.22-33.68,58.78-13.1,22.72-26.4,45.33-39.55,68.03-11.32,19.54-22.55,39.13-33.81,58.7-11.26,19.57-22.48,39.17-33.76,58.73-11.28,19.56-22.65,39.07-33.95,58.62-11.63,20.12-23.24,40.26-34.85,60.39-10.95,18.99-21.89,37.98-32.82,56.98-13.24,23.03-26.44,46.09-39.7,69.11-11.93,20.71-23.9,41.41-35.9,62.08-15.83,27.28-31.74,54.51-47.56,81.81-11.15,19.25-22.21,38.56-33.29,57.86-11.24,19.59-22.41,39.21-33.66,58.79-11.59,20.15-23.23,40.26-34.86,60.38-11.3,19.55-22.64,39.07-33.92,58.63-11.29,19.56-22.24,39.32-33.86,58.67-16.4,27.3-30.16,56.22-49.75,81.56-11.59,14.99-24.65,28.48-39.14,40.89-26.47,22.65-56.35,38.71-89.24,49.25-16.68,5.35-33.82,8.89-51.42,10.83-11.99,1.32-23.86,1.54-35.77,1.45-30.15-.24-59.2-6.51-87.28-17.32-24.03-9.25-46.45-21.67-66.65-37.53-28.77-22.59-52.3-49.8-69.46-82.41-11.69-22.22-20.56-45.38-25.85-69.88-4-18.51-6.68-37.21-5.29-54.06Z"/></svg>