<svg id="Capa_1" data-name="Capa 1" xmlns="http://www.w3.org/2000/svg" viewBox="0 0 280.85 280.84"><defs><style>.cls-1{fill:#dfdaab;}.cls-2{fill:#a0b984;}.cls-3{fill:#e4e0b8;}.cls-4{fill:#697b26;}</style></defs><path class="cls-1" d="M820.08,556v-7a7.8,7.8,0,0,0,0-6V523c1-13.47,3.57-26.6,9.14-39,18.85-42,50.19-69.66,94.69-82.15,6.91-1.94,14.15-1.25,21.11-2.76H1061c17.52,1.6,29,11.48,36.91,26.56,2.21,4.25,1.77,9,3.06,13.42v55c-3.37-.3-3.33-3.29-4.1-5.47-6.34-17.91-18.87-28.5-37.49-32a37.05,37.05,0,0,0-7-.44q-42.23,0-84.44,0c-33.37.05-65.18,22.13-77,53.36-.94,2.49-1.73,5-3.52,7.11-2,1.53-4.35,1.47-6.68,1.48-5.66,0-11.32-.1-17,.05-8.31.22-14.7,3.7-18.52,11.32s-2.49,14.59,2.47,21c3.77,4.9,9.06,7.19,15.15,7.44,5.33.22,10.66,0,16,.07,2.16,0,4.34,0,6.33,1.06,2.72,1.82,3.4,4.82,4.4,7.62,10.92,30.68,32.65,49,64.23,55.8A69.44,69.44,0,0,0,968.71,624c27.79-.08,55.59,0,83.38-.05,20,0,36.66-11.64,44-30.28,1-2.55.87-6.22,4.89-6.66v54c-2,17-11.8,28.26-26.56,35.9-4.26,2.2-9,1.78-13.41,3.08H944c-13.48-1-26.61-3.58-39-9.14-41.5-18.59-69-49.44-81.8-93.23C821.13,570.49,821.58,563.11,820.08,556Z" transform="translate(-820.08 -399.08)"/><path class="cls-2" d="M1100.93,587c-1.77,1.94-1.93,4.55-2.74,6.86a48.13,48.13,0,0,1-45,32.11q-41.94.07-83.88,0a85.65,85.65,0,0,1-82-59.3c-.73-2.2-1.57-4.37-2.35-6.56,1.84-2.68,4.69-2.13,7.27-2.14,19.47-.08,38.93,0,58.39-.05,6.68,0,12.47-2.26,16.61-7.57,4.88-6.25,6.14-13.16,2.57-20.57-3.71-7.66-10.05-11.46-18.35-11.57-19.13-.24-38.26,0-57.39-.12-2.57,0-5.44.56-7.19-2.26,6.17-22.53,19.94-39.14,40-50.64,13.69-7.85,28.59-11.27,44.42-11.16,26.29.19,52.58.05,78.86.05,25.32,0,42.88,13.37,49.72,37.8a14.82,14.82,0,0,0,1,2.18Z" transform="translate(-820.08 -399.08)"/><path class="cls-3" d="M820.08,543a4.71,4.71,0,0,1,0,6Z" transform="translate(-820.08 -399.08)"/><path class="cls-4" d="M886.93,515.8c21.63.07,43.26.07,64.88.25,9.12.08,16,4.28,20,12.54s2.84,15.9-2.58,23c-4.43,5.79-10.53,8.41-17.8,8.42l-66.38.09c-7.16,0-14.32,0-21.47-.11-12.78-.17-22.44-9.64-22.46-21.93s9.62-21.8,22.38-22C871.29,515.9,879.11,515.88,886.93,515.8Z" transform="translate(-820.08 -399.08)"/></svg>